<svg width="61" height="33" viewBox="0 0 61 33" fill="none" xmlns="http://www.w3.org/2000/svg">
<g clip-path="url(#clip0_965_2)">
<path fill-rule="evenodd" clip-rule="evenodd" d="M58.16 1.00017C57.8329 0.918922 57.497 0.878613 57.16 0.88017H11.1199C10.2792 0.880057 9.46185 1.15733 8.7947 1.66899C8.12755 2.18065 7.64784 2.89813 7.42994 3.71017L0.899943 28.0802C0.640095 29.0614 0.779309 30.1055 1.28713 30.9844C1.79496 31.8633 2.63009 32.5053 3.60995 32.7702C3.93674 32.8541 4.27256 32.8977 4.60995 32.9002H50.6099C51.4516 32.898 52.2691 32.6187 52.9361 32.1053C53.6031 31.592 54.0824 30.8732 54.2999 30.0602L60.8299 5.71017C61.1 4.73153 60.9705 3.68571 60.4698 2.80253C59.9692 1.91934 59.1384 1.27107 58.16 1.00017V1.00017Z" fill="#00AEEF"/>
<path fill-rule="evenodd" clip-rule="evenodd" d="M29.7399 29.84H11.1199C10.9174 29.8373 10.7241 29.755 10.5818 29.6109C10.4396 29.4668 10.3598 29.2724 10.3599 29.07V4.71995C10.3598 4.51746 10.4396 4.3231 10.5818 4.17898C10.7241 4.03486 10.9174 3.95258 11.1199 3.94995H29.7399L27.8599 10.95H18.6499V13.37H24.9999L23.1199 20.37H18.6799V22.79H29.7699L29.7399 29.84Z" fill="white"/>
<path fill-rule="evenodd" clip-rule="evenodd" d="M51.41 29.07C51.4101 29.2725 51.3303 29.4668 51.1881 29.611C51.0458 29.7551 50.8525 29.8374 50.65 29.84H43.1301V20.4H40.58V29.84H32.29V20.4H25.29L27.17 13.4H32.25V4H40.5401V13.44H43.09V4H50.61C50.8125 4.00263 51.0058 4.08491 51.1481 4.22903C51.2903 4.37315 51.3701 4.5675 51.37 4.77L51.41 29.07Z" fill="white"/>
</g>
<defs>
<clipPath id="clip0_965_2">
<rect width="61" height="33" fill="white"/>
</clipPath>
</defs>
</svg>
